<?xml version="1.0" encoding="utf-8"?>
<svg xmlns="http://www.w3.org/2000/svg" viewBox="274.002 193.1985 187.057 47.271" width="187.057px" height="47.271px" xmlns:bx="https://boxy-svg.com">
  <defs>
    <style bx:fonts="Aladin">@import url(https://fonts.googleapis.com/css2?family=Aladin%3Aital%2Cwght%400%2C400&amp;display=swap);</style>
  </defs>
  <path d="M 326.25 234.128 L 326.25 223.175 L 327.566 223.175 L 327.566 234.128 L 326.25 234.128 Z M 334.339 234.128 L 334.339 229.756 C 334.339 229.188 334.18 228.719 333.863 228.352 C 333.546 227.983 333.135 227.799 332.631 227.799 C 332.295 227.799 331.996 227.883 331.735 228.052 C 331.474 228.22 331.268 228.451 331.119 228.746 C 330.97 229.04 330.895 229.378 330.895 229.756 L 330.377 229.425 C 330.377 228.857 330.489 228.352 330.713 227.91 C 330.937 227.468 331.25 227.121 331.651 226.868 C 332.052 226.605 332.505 226.474 333.009 226.474 C 333.513 226.474 333.956 226.616 334.339 226.9 C 334.731 227.184 335.039 227.557 335.263 228.02 C 335.487 228.472 335.599 228.956 335.599 229.472 L 335.599 234.128 L 334.339 234.128 Z M 329.635 234.128 L 329.635 226.632 L 330.895 226.632 L 330.895 234.128 L 329.635 234.128 Z M 338.245 234.128 L 338.245 223.491 L 339.505 223.491 L 339.505 234.128 L 338.245 234.128 Z M 336.607 227.926 L 336.607 226.632 L 341.143 226.632 L 341.143 227.926 L 336.607 227.926 Z M 345.252 234.285 C 344.589 234.285 343.992 234.116 343.46 233.78 C 342.928 233.433 342.508 232.964 342.2 232.376 C 341.892 231.786 341.738 231.118 341.738 230.372 C 341.738 229.635 341.887 228.972 342.186 228.383 C 342.494 227.794 342.905 227.33 343.418 226.995 C 343.941 226.647 344.524 226.474 345.168 226.474 C 345.784 226.474 346.325 226.632 346.792 226.947 C 347.268 227.263 347.637 227.699 347.898 228.257 C 348.169 228.814 348.304 229.445 348.304 230.151 C 348.304 230.256 348.299 230.372 348.29 230.498 C 348.281 230.613 348.262 230.75 348.234 230.908 L 342.62 230.908 L 342.62 229.725 L 347.562 229.725 L 347.1 230.182 C 347.1 229.677 347.021 229.251 346.862 228.904 C 346.703 228.546 346.479 228.273 346.19 228.083 C 345.901 227.883 345.551 227.784 345.14 227.784 C 344.711 227.784 344.333 227.888 344.006 228.099 C 343.679 228.309 343.427 228.604 343.25 228.983 C 343.073 229.362 342.984 229.808 342.984 230.324 C 342.984 230.85 343.077 231.313 343.264 231.713 C 343.451 232.102 343.717 232.408 344.062 232.628 C 344.407 232.838 344.804 232.944 345.252 232.944 C 345.625 232.944 345.966 232.87 346.274 232.723 C 346.591 232.575 346.862 232.355 347.086 232.06 L 347.898 232.991 C 347.581 233.412 347.189 233.733 346.722 233.954 C 346.265 234.175 345.775 234.285 345.252 234.285 Z M 349.678 234.128 L 349.678 222.86 L 350.938 222.86 L 350.938 234.128 L 349.678 234.128 Z M 352.782 234.128 L 352.782 222.86 L 354.042 222.86 L 354.042 234.128 L 352.782 234.128 Z M 355.899 234.128 L 355.899 226.632 L 357.159 226.632 L 357.159 234.128 L 355.899 234.128 Z M 356.529 225.132 C 356.296 225.132 356.104 225.048 355.955 224.88 C 355.806 224.701 355.731 224.48 355.731 224.217 C 355.731 223.965 355.806 223.754 355.955 223.586 C 356.104 223.407 356.296 223.318 356.529 223.318 C 356.762 223.318 356.954 223.407 357.103 223.586 C 357.252 223.754 357.327 223.965 357.327 224.217 C 357.327 224.48 357.252 224.701 357.103 224.88 C 356.954 225.048 356.762 225.132 356.529 225.132 Z M 361.774 237.426 C 361.093 237.426 360.486 237.284 359.954 237 C 359.431 236.716 359.011 236.316 358.694 235.8 L 359.506 234.869 C 359.777 235.258 360.099 235.552 360.472 235.753 C 360.845 235.963 361.289 236.069 361.802 236.069 C 362.483 236.069 363.02 235.864 363.412 235.453 C 363.813 235.053 364.014 234.511 364.014 233.828 L 364.014 231.966 L 364.238 230.277 L 364.014 228.604 L 364.014 226.632 L 365.274 226.632 L 365.274 233.828 C 365.274 234.542 365.125 235.169 364.826 235.706 C 364.537 236.242 364.126 236.663 363.594 236.968 C 363.071 237.273 362.465 237.426 361.774 237.426 Z M 361.774 234.001 C 361.167 234.001 360.621 233.838 360.136 233.512 C 359.66 233.185 359.282 232.739 359.002 232.171 C 358.722 231.591 358.582 230.944 358.582 230.23 C 358.582 229.514 358.722 228.877 359.002 228.32 C 359.282 227.752 359.66 227.305 360.136 226.979 C 360.621 226.642 361.167 226.474 361.774 226.474 C 362.297 226.474 362.759 226.589 363.16 226.821 C 363.561 227.052 363.879 227.378 364.112 227.799 C 364.355 228.21 364.485 228.693 364.504 229.251 L 364.504 231.24 C 364.476 231.786 364.341 232.27 364.098 232.692 C 363.865 233.102 363.547 233.422 363.146 233.654 C 362.745 233.885 362.287 234.001 361.774 234.001 Z M 362.026 232.66 C 362.437 232.66 362.796 232.56 363.104 232.36 C 363.421 232.16 363.664 231.881 363.832 231.524 C 364 231.155 364.084 230.729 364.084 230.245 C 364.084 229.761 363.995 229.34 363.818 228.983 C 363.65 228.614 363.412 228.33 363.104 228.131 C 362.796 227.92 362.432 227.815 362.012 227.815 C 361.592 227.815 361.223 227.92 360.906 228.131 C 360.589 228.33 360.337 228.614 360.15 228.983 C 359.973 229.34 359.884 229.756 359.884 230.23 C 359.884 230.703 359.973 231.124 360.15 231.492 C 360.337 231.86 360.589 232.149 360.906 232.36 C 361.233 232.56 361.606 232.66 362.026 232.66 Z M 370.204 234.285 C 369.541 234.285 368.943 234.116 368.411 233.78 C 367.879 233.433 367.459 232.964 367.151 232.376 C 366.843 231.786 366.689 231.118 366.689 230.372 C 366.689 229.635 366.839 228.972 367.137 228.383 C 367.445 227.794 367.856 227.33 368.369 226.995 C 368.892 226.647 369.476 226.474 370.12 226.474 C 370.736 226.474 371.277 226.632 371.744 226.947 C 372.22 227.263 372.588 227.699 372.85 228.257 C 373.12 228.814 373.256 229.445 373.256 230.151 C 373.256 230.256 373.251 230.372 373.242 230.498 C 373.232 230.613 373.214 230.75 373.186 230.908 L 367.571 230.908 L 367.571 229.725 L 372.514 229.725 L 372.052 230.182 C 372.052 229.677 371.972 229.251 371.814 228.904 C 371.655 228.546 371.431 228.273 371.142 228.083 C 370.852 227.883 370.502 227.784 370.092 227.784 C 369.662 227.784 369.284 227.888 368.957 228.099 C 368.631 228.309 368.379 228.604 368.201 228.983 C 368.024 229.362 367.935 229.808 367.935 230.324 C 367.935 230.85 368.029 231.313 368.215 231.713 C 368.402 232.102 368.668 232.408 369.013 232.628 C 369.359 232.838 369.756 232.944 370.204 232.944 C 370.577 232.944 370.918 232.87 371.226 232.723 C 371.543 232.575 371.814 232.355 372.038 232.06 L 372.85 232.991 C 372.532 233.412 372.14 233.733 371.674 233.954 C 371.216 234.175 370.726 234.285 370.204 234.285 Z M 379.334 234.128 L 379.334 229.756 C 379.334 229.188 379.175 228.719 378.858 228.352 C 378.54 227.983 378.13 227.799 377.626 227.799 C 377.29 227.799 376.991 227.883 376.73 228.052 C 376.468 228.22 376.263 228.451 376.114 228.746 C 375.964 229.04 375.89 229.378 375.89 229.756 L 375.372 229.425 C 375.372 228.857 375.484 228.352 375.708 227.91 C 375.932 227.468 376.244 227.121 376.646 226.868 C 377.047 226.605 377.5 226.474 378.004 226.474 C 378.508 226.474 378.951 226.616 379.334 226.9 C 379.726 227.184 380.034 227.557 380.258 228.02 C 380.482 228.472 380.594 228.956 380.594 229.472 L 380.594 234.128 L 379.334 234.128 Z M 374.63 234.128 L 374.63 226.632 L 375.89 226.632 L 375.89 234.128 L 374.63 234.128 Z M 383.239 234.128 L 383.239 223.491 L 384.499 223.491 L 384.499 234.128 L 383.239 234.128 Z M 381.601 227.926 L 381.601 226.632 L 386.137 226.632 L 386.137 227.926 L 381.601 227.926 Z M 389.397 234.128 L 393.373 223.175 L 394.325 223.175 L 398.287 234.128 L 396.859 234.128 L 393.597 224.864 L 394.087 224.864 L 390.797 234.128 L 389.397 234.128 Z M 391.287 231.65 L 391.287 230.356 L 396.397 230.356 L 396.397 231.65 L 391.287 231.65 Z M 399.75 234.128 L 399.75 223.175 L 401.066 223.175 L 401.066 234.128 L 399.75 234.128 Z M 405.161 234.128 L 409.137 223.175 L 410.089 223.175 L 414.051 234.128 L 412.623 234.128 L 409.361 224.864 L 409.851 224.864 L 406.561 234.128 L 405.161 234.128 Z M 407.051 231.65 L 407.051 230.356 L 412.161 230.356 L 412.161 231.65 L 407.051 231.65 Z M 417.513 234.285 C 417.14 234.285 416.785 234.232 416.449 234.128 C 416.122 234.012 415.819 233.854 415.539 233.654 C 415.259 233.443 415.016 233.197 414.811 232.913 L 415.623 231.997 C 415.866 232.333 416.146 232.586 416.463 232.755 C 416.78 232.913 417.135 232.991 417.527 232.991 C 417.919 232.991 418.222 232.917 418.437 232.77 C 418.652 232.613 418.759 232.396 418.759 232.123 C 418.759 231.85 418.67 231.639 418.493 231.492 C 418.325 231.334 418.106 231.208 417.835 231.113 C 417.564 231.007 417.275 230.908 416.967 230.814 C 416.668 230.708 416.384 230.577 416.113 230.419 C 415.842 230.261 415.618 230.045 415.441 229.772 C 415.273 229.498 415.189 229.135 415.189 228.683 C 415.189 228.23 415.287 227.841 415.483 227.515 C 415.679 227.178 415.95 226.92 416.295 226.742 C 416.65 226.563 417.074 226.474 417.569 226.474 C 418.092 226.474 418.554 226.579 418.955 226.789 C 419.366 226.989 419.702 227.294 419.963 227.705 L 419.151 228.62 C 418.964 228.346 418.731 228.135 418.451 227.989 C 418.18 227.841 417.872 227.768 417.527 227.768 C 417.163 227.768 416.883 227.841 416.687 227.989 C 416.5 228.125 416.407 228.32 416.407 228.573 C 416.407 228.825 416.491 229.019 416.659 229.157 C 416.827 229.293 417.046 229.409 417.317 229.504 C 417.597 229.598 417.886 229.698 418.185 229.804 C 418.484 229.898 418.768 230.029 419.039 230.198 C 419.31 230.366 419.529 230.593 419.697 230.877 C 419.874 231.161 419.963 231.534 419.963 231.997 C 419.963 232.702 419.739 233.26 419.291 233.67 C 418.852 234.08 418.26 234.285 417.513 234.285 Z M 423.488 234.285 C 423.114 234.285 422.76 234.232 422.424 234.128 C 422.097 234.012 421.794 233.854 421.514 233.654 C 421.234 233.443 420.991 233.197 420.786 232.913 L 421.598 231.997 C 421.84 232.333 422.12 232.586 422.438 232.755 C 422.755 232.913 423.11 232.991 423.502 232.991 C 423.894 232.991 424.197 232.917 424.412 232.77 C 424.626 232.613 424.734 232.396 424.734 232.123 C 424.734 231.85 424.645 231.639 424.468 231.492 C 424.3 231.334 424.08 231.208 423.81 231.113 C 423.539 231.007 423.25 230.908 422.942 230.814 C 422.643 230.708 422.358 230.577 422.088 230.419 C 421.817 230.261 421.593 230.045 421.416 229.772 C 421.248 229.498 421.164 229.135 421.164 228.683 C 421.164 228.23 421.262 227.841 421.458 227.515 C 421.654 227.178 421.924 226.92 422.27 226.742 C 422.624 226.563 423.049 226.474 423.544 226.474 C 424.066 226.474 424.528 226.579 424.93 226.789 C 425.34 226.989 425.676 227.294 425.938 227.705 L 425.126 228.62 C 424.939 228.346 424.706 228.135 424.426 227.989 C 424.155 227.841 423.847 227.768 423.502 227.768 C 423.138 227.768 422.858 227.841 422.662 227.989 C 422.475 228.125 422.382 228.32 422.382 228.573 C 422.382 228.825 422.466 229.019 422.634 229.157 C 422.802 229.293 423.021 229.409 423.292 229.504 C 423.572 229.598 423.861 229.698 424.16 229.804 C 424.458 229.898 424.743 230.029 425.014 230.198 C 425.284 230.366 425.504 230.593 425.672 230.877 C 425.849 231.161 425.938 231.534 425.938 231.997 C 425.938 232.702 425.714 233.26 425.266 233.67 C 424.827 234.08 424.234 234.285 423.488 234.285 Z M 427.362 234.128 L 427.362 226.632 L 428.622 226.632 L 428.622 234.128 L 427.362 234.128 Z M 427.992 225.132 C 427.759 225.132 427.568 225.048 427.418 224.88 C 427.269 224.701 427.194 224.48 427.194 224.217 C 427.194 223.965 427.269 223.754 427.418 223.586 C 427.568 223.407 427.759 223.318 427.992 223.318 C 428.226 223.318 428.417 223.407 428.566 223.586 C 428.716 223.754 428.79 223.965 428.79 224.217 C 428.79 224.48 428.716 224.701 428.566 224.88 C 428.417 225.048 428.226 225.132 427.992 225.132 Z M 432.593 234.285 C 432.22 234.285 431.865 234.232 431.529 234.128 C 431.202 234.012 430.899 233.854 430.619 233.654 C 430.339 233.443 430.096 233.197 429.891 232.913 L 430.703 231.997 C 430.946 232.333 431.226 232.586 431.543 232.755 C 431.86 232.913 432.215 232.991 432.607 232.991 C 432.999 232.991 433.302 232.917 433.517 232.77 C 433.732 232.613 433.839 232.396 433.839 232.123 C 433.839 231.85 433.75 231.639 433.573 231.492 C 433.405 231.334 433.186 231.208 432.915 231.113 C 432.644 231.007 432.355 230.908 432.047 230.814 C 431.748 230.708 431.464 230.577 431.193 230.419 C 430.922 230.261 430.698 230.045 430.521 229.772 C 430.353 229.498 430.269 229.135 430.269 228.683 C 430.269 228.23 430.367 227.841 430.563 227.515 C 430.759 227.178 431.03 226.92 431.375 226.742 C 431.73 226.563 432.154 226.474 432.649 226.474 C 433.172 226.474 433.634 226.579 434.035 226.789 C 434.446 226.989 434.782 227.294 435.043 227.705 L 434.231 228.62 C 434.044 228.346 433.811 228.135 433.531 227.989 C 433.26 227.841 432.952 227.768 432.607 227.768 C 432.243 227.768 431.963 227.841 431.767 227.989 C 431.58 228.125 431.487 228.32 431.487 228.573 C 431.487 228.825 431.571 229.019 431.739 229.157 C 431.907 229.293 432.126 229.409 432.397 229.504 C 432.677 229.598 432.966 229.698 433.265 229.804 C 433.564 229.898 433.848 230.029 434.119 230.198 C 434.39 230.366 434.609 230.593 434.777 230.877 C 434.954 231.161 435.043 231.534 435.043 231.997 C 435.043 232.702 434.819 233.26 434.371 233.67 C 433.932 234.08 433.34 234.285 432.593 234.285 Z M 437.476 234.128 L 437.476 223.491 L 438.736 223.491 L 438.736 234.128 L 437.476 234.128 Z M 435.838 227.926 L 435.838 226.632 L 440.374 226.632 L 440.374 227.926 L 435.838 227.926 Z M 444.231 234.285 C 443.624 234.285 443.074 234.116 442.579 233.78 C 442.084 233.433 441.692 232.964 441.403 232.376 C 441.123 231.786 440.983 231.124 440.983 230.388 C 440.983 229.65 441.123 228.987 441.403 228.399 C 441.692 227.81 442.08 227.342 442.565 226.995 C 443.06 226.647 443.615 226.474 444.231 226.474 C 444.735 226.474 445.183 226.594 445.575 226.837 C 445.976 227.068 446.298 227.394 446.541 227.815 C 446.784 228.225 446.919 228.703 446.947 229.251 L 446.947 231.508 C 446.919 232.045 446.784 232.522 446.541 232.944 C 446.308 233.365 445.99 233.696 445.589 233.938 C 445.197 234.169 444.744 234.285 444.231 234.285 Z M 444.441 232.944 C 445.066 232.944 445.57 232.707 445.953 232.234 C 446.336 231.749 446.527 231.134 446.527 230.388 C 446.527 229.871 446.438 229.425 446.261 229.046 C 446.093 228.656 445.85 228.356 445.533 228.147 C 445.216 227.926 444.847 227.815 444.427 227.815 C 444.007 227.815 443.634 227.926 443.307 228.147 C 442.99 228.368 442.738 228.672 442.551 229.062 C 442.374 229.441 442.285 229.877 442.285 230.372 C 442.285 230.877 442.374 231.323 442.551 231.713 C 442.738 232.092 442.994 232.392 443.321 232.613 C 443.648 232.834 444.021 232.944 444.441 232.944 Z M 446.443 234.128 L 446.443 232.108 L 446.681 230.277 L 446.443 228.462 L 446.443 226.632 L 447.717 226.632 L 447.717 234.128 L 446.443 234.128 Z M 454.255 234.128 L 454.255 229.756 C 454.255 229.188 454.097 228.719 453.779 228.352 C 453.462 227.983 453.051 227.799 452.547 227.799 C 452.211 227.799 451.913 227.883 451.651 228.052 C 451.39 228.22 451.185 228.451 451.035 228.746 C 450.886 229.04 450.811 229.378 450.811 229.756 L 450.293 229.425 C 450.293 228.857 450.405 228.352 450.629 227.91 C 450.853 227.468 451.166 227.121 451.567 226.868 C 451.969 226.605 452.421 226.474 452.925 226.474 C 453.429 226.474 453.873 226.616 454.255 226.9 C 454.647 227.184 454.955 227.557 455.179 228.02 C 455.403 228.472 455.515 228.956 455.515 229.472 L 455.515 234.128 L 454.255 234.128 Z M 449.551 234.128 L 449.551 226.632 L 450.811 226.632 L 450.811 234.128 L 449.551 234.128 Z M 458.161 234.128 L 458.161 223.491 L 459.421 223.491 L 459.421 234.128 L 458.161 234.128 Z M 456.523 227.926 L 456.523 226.632 L 461.059 226.632 L 461.059 227.926 L 456.523 227.926 Z" fill="#E6CCFF" style="stroke-width: 1;" transform="matrix(1, 0, 0, 1, -1.4210854715202004e-14, 0)"/>
  <text style="fill: rgb(246, 246, 246); font-family: Aladin; font-size: 18px; white-space: pre;" transform="matrix(1.4023630619049072, 0, 0, 1.1272300481796265, -385.16849328828584, -24.58060301215354)" x="507.423" y="210.106">Sutradhara</text>
  <path d="M 312.134 215.144 L 305.201 221.897 L 298.268 221.897 L 292.201 227.805 L 292.201 221.897 L 284.402 221.897 L 284.402 196.573 L 312.134 196.573 L 312.134 215.144 Z" style="stroke-width: 1;" fill="#ffffff" transform="matrix(1, 0, 0, 1, -1.4210854715202004e-14, 0)"/>
  <g fill="#9146FF" transform="matrix(3.4665300846099854, 0, 0, 3.37650203704834, 267.0689431886217, 189.82200905415425)" style="">
    <path d="M4.5 1L2 3.5v9h3V15l2.5-2.5h2L14 8V1H4.5zM13 7.5l-2 2H9l-1.75 1.75V9.5H5V2h8v5.5z"/>
    <path d="M11.5 3.75h-1v3h1v-3zM8.75 3.75h-1v3h1v-3z"/>
  </g>
</svg>