<?xml version="1.0" encoding="utf-8"?>
<svg xmlns="http://www.w3.org/2000/svg" viewBox="274.002 193.1985 41.5984 47.271" width="41.5984px" height="47.271px">
  <path d="M 312.134 215.144 L 305.201 221.897 L 298.268 221.897 L 292.201 227.805 L 292.201 221.897 L 284.402 221.897 L 284.402 196.573 L 312.134 196.573 L 312.134 215.144 Z" style="stroke-width: 1;" fill="#ffffff" transform="matrix(1, 0, 0, 1, -1.4210854715202004e-14, 0)"/>
  <g fill="#9146FF" transform="matrix(3.4665300846099854, 0, 0, 3.37650203704834, 267.0689431886217, 189.82200905415425)" style="">
    <path d="M4.5 1L2 3.5v9h3V15l2.5-2.5h2L14 8V1H4.5zM13 7.5l-2 2H9l-1.75 1.75V9.5H5V2h8v5.5z"/>
    <path d="M11.5 3.75h-1v3h1v-3zM8.75 3.75h-1v3h1v-3z"/>
  </g>
</svg>